<?xml version="1.0" encoding="UTF-8"?>
<svg version="1.1" xmlns="http://www.w3.org/2000/svg" width="500" height="500">
<path d="M0 0 C4.24046813 0.75006797 7.16424414 2.04108998 10.8828125 4.25390625 C11.44668671 4.58689224 12.01056091 4.91987823 12.59152222 5.26295471 C13.80673688 5.98192446 15.01998779 6.7042218 16.23144531 7.42950439 C18.14472559 8.57430267 20.06374216 9.70889527 21.984375 10.84130859 C27.96393069 14.37334326 33.92049609 17.9410577 39.84542847 21.56401062 C42.30527067 23.06661868 44.77106733 24.55930026 47.23724365 26.05148315 C48.97528738 27.10995004 50.70257379 28.18461226 52.43017578 29.26000977 C54.01161377 30.21798462 54.01161377 30.21798462 55.625 31.1953125 C56.54539062 31.76266113 57.46578125 32.33000977 58.4140625 32.91455078 C61.54021721 34.22675658 62.82038829 34.08028507 66 33 C68.36195215 31.88527621 68.36195215 31.88527621 70.71875 30.4375 C72.09703979 29.62490723 72.09703979 29.62490723 73.50317383 28.79589844 C74.49212646 28.20325195 75.4810791 27.61060547 76.5 27 C78.63924951 25.73425093 80.77857606 24.46863205 82.91796875 23.203125 C84.06694922 22.5202743 85.21587365 21.83732931 86.36474609 21.15429688 C90.20854856 18.87238759 94.06613966 16.61436223 97.92578125 14.359375 C98.91316788 13.78225769 98.91316788 13.78225769 99.92050171 13.19348145 C101.23587828 12.42468464 102.55127725 11.65592616 103.86669922 10.88720703 C106.98108433 9.06703064 110.09488723 7.24588093 113.20703125 5.421875 C114.2535083 4.80924805 115.29998535 4.19662109 116.37817383 3.56542969 C118.28343764 2.42784224 120.15364771 1.23090153 122 0 C124.1875 0.375 124.1875 0.375 126 1 C125.99476318 1.93682617 125.98952637 2.87365234 125.98413086 3.83886719 C125.96691138 7.37256507 125.95446456 10.90621725 125.94506836 14.43994141 C125.94009315 15.95850333 125.93331059 17.4770606 125.92456055 18.99560547 C125.8737366 28.05422701 126.03221644 36.9789916 127 46 C127.86951294 45.45472656 127.86951294 45.45472656 128.7565918 44.8984375 C131.39319283 43.25402066 134.04007572 41.62692925 136.6875 40 C137.59951172 39.42765625 138.51152344 38.8553125 139.45117188 38.265625 C140.33740234 37.72421875 141.22363281 37.1828125 142.13671875 36.625 C142.94842529 36.12226563 143.76013184 35.61953125 144.59643555 35.1015625 C147 34 147 34 152 34 C152.33 44.56 152.66 55.12 153 66 C160.99049304 62.04317196 160.99049304 62.04317196 168.6484375 57.66796875 C169.59074219 57.09755859 170.53304687 56.52714844 171.50390625 55.93945312 C173.44373529 54.75576153 175.3811814 53.56815726 177.31640625 52.37695312 C178.25097656 51.81298828 179.18554688 51.24902344 180.1484375 50.66796875 C180.98552246 50.15516357 181.82260742 49.6423584 182.68505859 49.11401367 C185 48 185 48 189 48 C189 63.51 189 79.02 189 95 C196.06842615 90.69025376 196.06842615 90.69025376 203.12011719 86.35327148 C204.00344727 85.82290283 204.88677734 85.29253418 205.796875 84.74609375 C206.69760742 84.19622803 207.59833984 83.6463623 208.52636719 83.07983398 C211.35563607 81.84475145 212.15676666 82.1256599 215 83 C215.0934141 100.01115688 215.16396474 117.02223379 215.20724869 134.03358841 C215.22787979 141.93214742 215.25601066 149.83054714 215.30175781 157.72900391 C215.34160904 164.61277997 215.36742884 171.49644068 215.37635398 178.38032889 C215.38157171 182.02583581 215.39384608 185.67101268 215.42292023 189.31641388 C215.45510353 193.38459454 215.45596053 197.45220031 215.45410156 201.52050781 C215.46848267 202.73107346 215.48286377 203.9416391 215.49768066 205.18888855 C215.49218201 206.29664139 215.48668335 207.40439423 215.48101807 208.54571533 C215.48470524 209.50806721 215.48839241 210.47041908 215.49219131 211.46193314 C214.85485526 214.74846313 213.54274749 215.89428631 211 218 C209.36521719 219.0472722 207.6888403 220.03137205 205.984375 220.9609375 C204.99252197 221.50782227 204.00066895 222.05470703 202.97875977 222.61816406 C201.91326904 223.19791992 200.84777832 223.77767578 199.75 224.375 C197.48203421 225.6257225 195.21513348 226.87837795 192.94921875 228.1328125 C192.37135117 228.45221802 191.79348358 228.77162354 191.19810486 229.10070801 C185.26389884 232.38942921 179.41063143 235.81131385 173.5625 239.25 C166.75110511 243.24837441 159.92151135 247.19525237 153 251 C135.93176298 260.3924881 119.22060763 270.43316679 102.45703125 280.35546875 C101.27681396 281.04842041 101.27681396 281.04842041 100.07275391 281.75537109 C98.3962721 282.76205004 96.75935503 283.83443106 95.13671875 284.92578125 C93 286 93 286 89 285 C89 269.82 89 254.64 89 239 C77.30552636 245.1795228 77.30552636 245.1795228 66 252 C59.93873457 252.99960899 55.74226508 250.05701634 50.6875 247.125 C49.8001416 246.62323242 48.9127832 246.12146484 47.99853516 245.60449219 C45.32310929 244.08511453 42.65959191 242.54690032 40 241 C39.28376465 240.58395508 38.5675293 240.16791016 37.82958984 239.73925781 C34.44882661 237.76858647 31.07980332 235.77876042 27.71484375 233.78125 C21.98451505 230.38771765 16.20944546 227.07207433 10.4375 223.75 C1.87765737 218.82226482 -6.66410734 213.86549602 -15.1875 208.875 C-24.03958275 203.69290105 -32.94100117 198.6059549 -41.90112305 193.61279297 C-43.62407057 192.64758569 -45.32985882 191.6508854 -47.01399231 190.6194458 C-49.9679147 188.88703221 -49.9679147 188.88703221 -53.33203125 187.99435425 C-57.579376 186.35598364 -60.53333436 184.91977052 -63 181 C-65.38241711 172.1149415 -64.55305398 162.4630267 -64.31812119 153.33227921 C-64.23654102 149.6263639 -64.22919425 145.9202977 -64.21379089 142.21362305 C-64.17347241 135.20379658 -64.06692674 128.19662335 -63.93624753 121.18796253 C-63.79065576 113.20523381 -63.71939519 105.22237449 -63.65420687 97.23864746 C-63.51852374 80.82421463 -63.29005091 64.41244646 -63 48 C-59.01059582 48.71724682 -56.20691071 49.8166122 -52.703125 51.88671875 C-51.6733252 52.48911377 -50.64352539 53.09150879 -49.58251953 53.7121582 C-48.48278809 54.364021 -47.38305664 55.01588379 -46.25 55.6875 C-43.92007684 57.05088638 -41.58941255 58.41292867 -39.2578125 59.7734375 C-38.6623764 60.12177139 -38.06694031 60.47010529 -37.45346069 60.82899475 C-31.0536192 64.56737172 -24.59512046 68.19726534 -18.125 71.8125 C-16.53993652 72.70038208 -16.53993652 72.70038208 -14.92285156 73.60620117 C-9.01788275 76.90977064 -9.01788275 76.90977064 -3 80 C-2.855625 79.05125 -2.71125 78.1025 -2.5625 77.125 C-2 74 -2 74 -1 72 C-0.87887902 69.72338355 -0.82247855 67.44324083 -0.79467773 65.16357422 C-0.78477814 64.46102509 -0.77487854 63.75847595 -0.76467896 63.03463745 C-0.7330432 60.70802197 -0.70829841 58.38138606 -0.68359375 56.0546875 C-0.66302601 54.44328271 -0.64202958 52.83188334 -0.62062073 51.2204895 C-0.56538146 46.97577294 -0.51598039 42.73100753 -0.46777344 38.48620605 C-0.41757194 34.15612432 -0.36187883 29.82611365 -0.30664062 25.49609375 C-0.19903637 16.99745589 -0.09759646 8.49875865 0 0 Z " fill="#4A6BFD" transform="translate(183,110)"/>
<path d="M0 0 C4.24046813 0.75006797 7.16424414 2.04108998 10.8828125 4.25390625 C11.44668671 4.58689224 12.01056091 4.91987823 12.59152222 5.26295471 C13.80673688 5.98192446 15.01998779 6.7042218 16.23144531 7.42950439 C18.14472559 8.57430267 20.06374216 9.70889527 21.984375 10.84130859 C27.96393069 14.37334326 33.92049609 17.9410577 39.84542847 21.56401062 C42.30527067 23.06661868 44.77106733 24.55930026 47.23724365 26.05148315 C48.97528738 27.10995004 50.70257379 28.18461226 52.43017578 29.26000977 C54.01161377 30.21798462 54.01161377 30.21798462 55.625 31.1953125 C56.54539063 31.76266113 57.46578125 32.33000977 58.4140625 32.91455078 C61.54021721 34.22675658 62.82038829 34.08028507 66 33 C68.36195215 31.88527621 68.36195215 31.88527621 70.71875 30.4375 C71.63760986 29.89577148 72.55646973 29.35404297 73.50317383 28.79589844 C74.49212646 28.20325195 75.4810791 27.61060547 76.5 27 C78.63924951 25.73425093 80.77857606 24.46863205 82.91796875 23.203125 C84.06694922 22.5202743 85.21587365 21.83732931 86.36474609 21.15429688 C90.20854856 18.87238759 94.06613966 16.61436223 97.92578125 14.359375 C98.91316788 13.78225769 98.91316788 13.78225769 99.92050171 13.19348145 C101.23587828 12.42468464 102.55127725 11.65592616 103.86669922 10.88720703 C106.98108433 9.06703064 110.09488723 7.24588093 113.20703125 5.421875 C114.2535083 4.80924805 115.29998535 4.19662109 116.37817383 3.56542969 C118.28343764 2.42784224 120.15364771 1.23090153 122 0 C124.1875 0.375 124.1875 0.375 126 1 C125.99476318 1.93682617 125.98952637 2.87365234 125.98413086 3.83886719 C125.96691138 7.37256507 125.95446456 10.90621725 125.94506836 14.43994141 C125.94009315 15.95850333 125.93331059 17.4770606 125.92456055 18.99560547 C125.8737366 28.05422701 126.03221644 36.9789916 127 46 C127.86951294 45.45472656 127.86951294 45.45472656 128.7565918 44.8984375 C131.39319283 43.25402066 134.04007572 41.62692925 136.6875 40 C137.59951172 39.42765625 138.51152344 38.8553125 139.45117188 38.265625 C140.33740234 37.72421875 141.22363281 37.1828125 142.13671875 36.625 C142.94842529 36.12226563 143.76013184 35.61953125 144.59643555 35.1015625 C147.27023905 33.87614844 149.09309438 33.7828304 152 34 C152.37629823 42.80077089 152.65346937 51.59798673 152.81993103 60.4052124 C152.90541551 64.66701249 153.03198798 68.92096812 153.23925781 73.17871094 C154.62076576 102.0918927 154.62076576 102.0918927 150.27832031 108.56738281 C146.10253959 112.28320044 141.5183726 113.99441493 136.15869141 115.34472656 C132.96520911 116.31411205 130.69897795 118.06801271 128 120 C127.34 120 126.68 120 126 120 C126 128.25 126 136.5 126 145 C124.494375 145.804375 122.98875 146.60875 121.4375 147.4375 C116.01169448 150.39193862 110.72013174 153.53484072 105.43847656 156.73632812 C101.22989169 159.28186066 96.98108793 161.71862184 92.63671875 164.02734375 C90.81913253 165.01644765 90.81913253 165.01644765 89 167 C87.98808594 167.40863281 86.97617187 167.81726563 85.93359375 168.23828125 C82.88107311 169.48435281 80.39227245 171.04853322 77.72265625 172.98046875 C66.03414185 181.20196609 66.03414185 181.20196609 60.77001953 180.8515625 C56.28817522 179.50732037 52.54159696 177.00052836 48.77441406 174.27978516 C46.27957628 172.48039885 43.64239775 170.9471918 41 169.375 C39.97132813 168.7253125 38.94265625 168.075625 37.8828125 167.40625 C32.61961684 164.10771066 27.24009153 161.00381788 21.875 157.875 C20.87339844 157.28895996 19.87179688 156.70291992 18.83984375 156.09912109 C17.36837891 155.24181396 17.36837891 155.24181396 15.8671875 154.3671875 C15.00206543 153.86300293 14.13694336 153.35881836 13.24560547 152.83935547 C8.5301507 150.16700432 3.75824052 147.59540392 -1 145 C-1.33 124.54 -1.66 104.08 -2 83 C-2.66 82.67 -3.32 82.34 -4 82 C-2.125 74.25 -2.125 74.25 -1 72 C-0.87887902 69.72338355 -0.82247855 67.44324083 -0.79467773 65.16357422 C-0.78477814 64.46102509 -0.77487854 63.75847595 -0.76467896 63.03463745 C-0.7330432 60.70802197 -0.70829841 58.38138606 -0.68359375 56.0546875 C-0.66302601 54.44328271 -0.64202958 52.83188334 -0.62062073 51.2204895 C-0.56538146 46.97577294 -0.51598039 42.73100753 -0.46777344 38.48620605 C-0.41757194 34.15612432 -0.36187883 29.82611365 -0.30664062 25.49609375 C-0.19903637 16.99745589 -0.09759646 8.49875865 0 0 Z " fill="#F6FAFE" transform="translate(183,110)"/>
<path d="M0 0 C0.0934141 17.01115688 0.16396474 34.02223379 0.20724869 51.03358841 C0.22787979 58.93214742 0.25601066 66.83054714 0.30175781 74.72900391 C0.34160904 81.61277997 0.36742884 88.49644068 0.37635398 95.38032889 C0.38157171 99.02583581 0.39384608 102.67101268 0.42292023 106.31641388 C0.45510353 110.38459454 0.45596053 114.45220031 0.45410156 118.52050781 C0.46848267 119.73107346 0.48286377 120.9416391 0.49768066 122.18888855 C0.49218201 123.29664139 0.48668335 124.40439423 0.48101807 125.54571533 C0.48470524 126.50806721 0.48839241 127.47041908 0.49219131 128.46193314 C-0.14514474 131.74846313 -1.45725251 132.89428631 -4 135 C-5.63478281 136.0472722 -7.3111597 137.03137205 -9.015625 137.9609375 C-10.00747803 138.50782227 -10.99933105 139.05470703 -12.02124023 139.61816406 C-13.08673096 140.19791992 -14.15222168 140.77767578 -15.25 141.375 C-17.51796579 142.6257225 -19.78486652 143.87837795 -22.05078125 145.1328125 C-22.62864883 145.45221802 -23.20651642 145.77162354 -23.80189514 146.10070801 C-29.73610116 149.38942921 -35.58936857 152.81131385 -41.4375 156.25 C-48.24889489 160.24837441 -55.07848865 164.19525237 -62 168 C-79.06823702 177.3924881 -95.77939237 187.43316679 -112.54296875 197.35546875 C-113.72318604 198.04842041 -113.72318604 198.04842041 -114.92724609 198.75537109 C-116.6037279 199.76205004 -118.24064497 200.83443106 -119.86328125 201.92578125 C-122 203 -122 203 -126 202 C-126 178.57 -126 155.14 -126 131 C-124.02 130.01 -122.04 129.02 -120 128 C-118.73203775 127.17273195 -117.48107755 126.31872004 -116.25 125.4375 C-110.91740953 121.80081841 -105.26841362 118.78231618 -99.60791016 115.69555664 C-94.77346198 113.0417166 -90.15678683 110.26081653 -85.7265625 106.9609375 C-84 106 -84 106 -80 106 C-80 105.34 -80 104.68 -80 104 C-79.33613281 103.67386719 -78.67226563 103.34773438 -77.98828125 103.01171875 C-72.4110217 100.25338463 -72.4110217 100.25338463 -67 97.1875 C-65 96 -65 96 -63 96 C-63.04219162 95.23515793 -63.08438324 94.47031586 -63.12785339 93.68229675 C-63.51047168 86.43151048 -63.79865794 79.18567776 -63.98443127 71.92739391 C-64.0831796 68.19596086 -64.21662283 64.47292862 -64.43334961 60.74633789 C-65.79491178 36.72210453 -65.79491178 36.72210453 -61.17047119 30.5635376 C-56.11122879 26.20296477 -50.33262618 23.90111491 -44 22 C-42.80785889 21.59547607 -41.61571777 21.19095215 -40.38745117 20.77416992 C-39.59959229 20.51869385 -38.8117334 20.26321777 -38 20 C-38 19.34 -38 18.68 -38 18 C-36.54462432 17.16151196 -35.08559627 16.32936066 -33.625 15.5 C-32.81289063 15.0359375 -32.00078125 14.571875 -31.1640625 14.09375 C-29 13 -29 13 -27 13 C-26.67 12.34 -26.34 11.68 -26 11 C-24.99646484 10.60361328 -24.99646484 10.60361328 -23.97265625 10.19921875 C-21.39429705 9.15906596 -19.29006793 8.0292167 -16.93359375 6.58203125 C-16.20076172 6.13279297 -15.46792969 5.68355469 -14.71289062 5.22070312 C-13.18788027 4.27689843 -11.66706195 3.32628846 -10.15039062 2.36914062 C-9.41884766 1.92376953 -8.68730469 1.47839844 -7.93359375 1.01953125 C-7.27415771 0.60807861 -6.61472168 0.19662598 -5.93530273 -0.22729492 C-3.53262667 -1.18660737 -2.42861154 -0.70865483 0 0 Z " fill="#C2D5FE" transform="translate(398,193)"/>
<path d="M0 0 C4.24046813 0.75006797 7.16424414 2.04108998 10.8828125 4.25390625 C11.44668671 4.58689224 12.01056091 4.91987823 12.59152222 5.26295471 C13.80673688 5.98192446 15.01998779 6.7042218 16.23144531 7.42950439 C18.14472559 8.57430267 20.06374216 9.70889527 21.984375 10.84130859 C27.96393069 14.37334326 33.92049609 17.9410577 39.84542847 21.56401062 C42.30527067 23.06661868 44.77106733 24.55930026 47.23724365 26.05148315 C48.97528738 27.10995004 50.70257379 28.18461226 52.43017578 29.26000977 C54.01161377 30.21798462 54.01161377 30.21798462 55.625 31.1953125 C56.54539063 31.76266113 57.46578125 32.33000977 58.4140625 32.91455078 C61.54021721 34.22675658 62.82038829 34.08028507 66 33 C68.36195215 31.88527621 68.36195215 31.88527621 70.71875 30.4375 C71.63760986 29.89577148 72.55646973 29.35404297 73.50317383 28.79589844 C74.49212646 28.20325195 75.4810791 27.61060547 76.5 27 C78.63924951 25.73425093 80.77857606 24.46863205 82.91796875 23.203125 C84.06694922 22.5202743 85.21587365 21.83732931 86.36474609 21.15429688 C90.20854856 18.87238759 94.06613966 16.61436223 97.92578125 14.359375 C98.91316788 13.78225769 98.91316788 13.78225769 99.92050171 13.19348145 C101.23587828 12.42468464 102.55127725 11.65592616 103.86669922 10.88720703 C106.98108433 9.06703064 110.09488723 7.24588093 113.20703125 5.421875 C114.2535083 4.80924805 115.29998535 4.19662109 116.37817383 3.56542969 C118.28343764 2.42784224 120.15364771 1.23090153 122 0 C124.1875 0.375 124.1875 0.375 126 1 C126.07597749 7.35368197 126.12856897 13.70724709 126.16479492 20.0612793 C126.17989444 22.22343321 126.20037571 24.38555643 126.22631836 26.54760742 C126.26265017 29.652909 126.27971462 32.75780614 126.29296875 35.86328125 C126.30845261 36.83211746 126.32393646 37.80095367 126.33988953 38.79914856 C126.34011612 39.6998558 126.34034271 40.60056305 126.34057617 41.52856445 C126.35056892 42.71770195 126.35056892 42.71770195 126.36076355 43.93086243 C125.90590968 46.53964935 125.00856857 47.33104749 123 49 C122.2575 49.66 121.515 50.32 120.75 51 C116.97936105 53.74228288 112.81455081 55.30723545 108.48046875 56.96191406 C101.75273566 59.62356743 94.81169807 62.42186801 90 68 C87.18858935 75.96501722 88.05177813 84.73541707 89 93 C88.20182861 93.37882324 87.40365723 93.75764648 86.58129883 94.14794922 C79.82044323 97.37650991 73.75248291 101.05737976 67.69140625 105.4609375 C64.73472459 107.15169595 63.33843017 107.49094561 60 107 C57.47080954 105.90418054 55.34731174 104.47282306 53 103 C53 102.34 53 101.68 53 101 C52.236875 100.79632813 51.47375 100.59265625 50.6875 100.3828125 C45.47098206 98.42661827 40.81797321 95.65374168 36 92.875 C34.97559814 92.28895996 33.95119629 91.70291992 32.89575195 91.09912109 C30.85599455 89.93193641 28.81731133 88.76287221 26.77978516 87.59179688 C24.43734133 86.2504361 22.0881723 84.92363737 19.73046875 83.609375 C18.81297852 83.09528076 18.81297852 83.09528076 17.87695312 82.57080078 C16.32911673 81.70428081 14.77986314 80.84029359 13.23046875 79.9765625 C11.63138672 78.99816406 11.63138672 78.99816406 10 78 C9.18534775 77.61910721 8.3706955 77.23821442 7.53135681 76.84577942 C4.44683157 75.16526295 2.32222595 73.65216067 0 71 C-1.41050444 65.59947736 -1.16838152 60.31088987 -0.9765625 54.78515625 C-0.9578905 53.203369 -0.94366566 51.62152356 -0.9336853 50.03965759 C-0.89566052 45.8936039 -0.79758817 41.75110324 -0.68664551 37.60644531 C-0.58399373 33.37028066 -0.53860225 29.13353659 -0.48828125 24.89648438 C-0.38131439 16.59603292 -0.21085501 8.29845945 0 0 Z " fill="#4A6CFD" transform="translate(183,110)"/>
<path d="M0 0 C0.37629823 8.80077089 0.65346937 17.59798673 0.81993103 26.4052124 C0.90541551 30.66701249 1.03198798 34.92096812 1.23925781 39.17871094 C2.62076576 68.0918927 2.62076576 68.0918927 -1.72167969 74.56738281 C-5.89746041 78.28320044 -10.4816274 79.99441493 -15.84130859 81.34472656 C-19.03479089 82.31411205 -21.30102205 84.06801271 -24 86 C-24.66 86 -25.32 86 -26 86 C-26 94.25 -26 102.5 -26 111 C-26.33 111 -26.66 111 -27 111 C-27 103.08 -27 95.16 -27 87 C-28.753125 87.928125 -30.50625 88.85625 -32.3125 89.8125 C-33.29863281 90.33457031 -34.28476562 90.85664063 -35.30078125 91.39453125 C-37.94173188 92.81461564 -37.94173188 92.81461564 -39.53515625 94.5390625 C-41.49430517 96.49298703 -43.6242572 97.39961814 -46.125 98.5625 C-49.76216915 100.04252349 -49.76216915 100.04252349 -52 103 C-53.7421875 104.0703125 -53.7421875 104.0703125 -55.875 105.125 C-56.57367188 105.47820312 -57.27234375 105.83140625 -57.9921875 106.1953125 C-60 107 -60 107 -63 107 C-63 92.15 -63 77.3 -63 62 C-64.98 62.495 -64.98 62.495 -67 63 C-69.25 62.5625 -69.25 62.5625 -71 62 C-66.375 59 -66.375 59 -63 59 C-63.08902588 58.29504395 -63.17805176 57.59008789 -63.26977539 56.86376953 C-65.4235894 37.28218419 -65.4235894 37.28218419 -61.46044922 31.91503906 C-57.50951981 28.64469481 -53.0061013 26.74520282 -48.24316406 24.94287109 C-45.16641202 23.64961724 -42.47750644 21.91135796 -39.70214844 20.07177734 C-37.57659512 18.73339825 -35.33559366 17.90828642 -33 17 C-31.66209359 16.00612666 -30.32781878 15.0073108 -29 14 C-28.34 14 -27.68 14 -27 14 C-26.67 13.34 -26.34 12.68 -26 12 C-24.38638843 11.02773314 -22.73272917 10.12142392 -21.0625 9.25 C-16.31587596 6.74398002 -11.78401654 4.03305426 -7.2890625 1.1015625 C-4.6535941 -0.16670045 -2.88670576 -0.08432267 0 0 Z " fill="#D2EBFE" transform="translate(335,144)"/>
<path d="M0 0 C2.475 0.495 2.475 0.495 5 1 C4.01 1.33 3.02 1.66 2 2 C2 24.77 2 47.54 2 71 C3.32 71 4.64 71 6 71 C6.33 72.32 6.66 73.64 7 75 C4.50638429 73.79618552 2.31856917 72.54571278 0 71 C-0.36076355 68.0640564 -0.36076355 68.0640564 -0.34057617 64.25537109 C-0.34101425 63.56257553 -0.34145233 62.86977997 -0.34190369 62.1559906 C-0.33981032 59.86152149 -0.31645468 57.56777926 -0.29296875 55.2734375 C-0.28737471 53.68446248 -0.28310371 52.09548229 -0.28010559 50.50650024 C-0.26864158 46.32077797 -0.23916131 42.13536714 -0.20599365 37.94976807 C-0.17532611 33.68009657 -0.16160737 29.41037484 -0.14648438 25.140625 C-0.11429284 16.76027361 -0.06307803 8.38017553 0 0 Z " fill="#556EDD" transform="translate(183,110)"/>
<path d="M0 0 C0.33 0 0.66 0 1 0 C1.0466746 16.65457669 1.08196651 33.30913223 1.10362434 49.96375847 C1.11394673 57.69640155 1.12802538 65.42900405 1.15087891 73.16162109 C1.1707834 79.89961591 1.18370943 86.63758135 1.18817699 93.37560475 C1.19078938 96.94492741 1.19694944 100.51416599 1.21146011 104.08346176 C1.22750932 108.06330722 1.22798158 112.04306963 1.22705078 116.02294922 C1.23783661 117.80750519 1.23783661 117.80750519 1.24884033 119.62811279 C1.246091 120.70787384 1.24334167 121.78763489 1.24050903 122.90011597 C1.24235262 123.8421884 1.24419621 124.78426083 1.24609566 125.75488091 C1 128 1 128 -1 130 C-1.495 127.525 -1.495 127.525 -2 125 C-1.34 125 -0.68 125 0 125 C0 83.75 0 42.5 0 0 Z " fill="#C1D0EF" transform="translate(397,196)"/>
<path d="M0 0 C0.0505939 6.51445205 0.08568856 13.02885368 0.10986328 19.54345703 C0.11993825 21.76092421 0.13359859 23.97837805 0.15087891 26.19580078 C0.17506163 29.37796312 0.18646797 32.55995024 0.1953125 35.7421875 C0.20563507 36.73805878 0.21595764 37.73393005 0.22659302 38.75997925 C0.22681961 40.14118454 0.22681961 40.14118454 0.22705078 41.55029297 C0.231492 42.3630368 0.23593323 43.17578064 0.24050903 44.01315308 C0 46 0 46 -2 48 C-2 33.15 -2 18.3 -2 3 C-5.61334205 5.87336689 -5.61334205 5.87336689 -9 9 C-9.5775 8.835 -10.155 8.67 -10.75 8.5 C-13.98967814 7.78007152 -16.01631264 8.67391673 -19 10 C-19.33 10.99 -19.66 11.98 -20 13 C-22.109375 14.3515625 -22.109375 14.3515625 -24.75 15.625 C-25.61109375 16.05039063 -26.4721875 16.47578125 -27.359375 16.9140625 C-29.91805532 17.96630086 -32.27582783 18.55903688 -35 19 C-29.93300535 14.77391085 -24.43595935 11.57969904 -18.73413086 8.28955078 C-16.93374075 7.24782486 -15.14171043 6.19262518 -13.34960938 5.13671875 C-12.21201172 4.47800781 -11.07441406 3.81929687 -9.90234375 3.140625 C-8.86585693 2.53766602 -7.82937012 1.93470703 -6.76147461 1.31347656 C-4 0 -4 0 0 0 Z " fill="#546CD6" transform="translate(372,158)"/>
<path d="M0 0 C5.00445885 1.46471966 8.25822241 3.29041281 13 6 C13 29.43 13 52.86 13 77 C14.32 77.33 15.64 77.66 17 78 C12.12335991 78.34833144 9.22949995 77.41685712 5 75 C8.01031744 74.06576355 8.86650268 73.95550089 12 75 C11.89242208 66.72443579 11.77977324 58.44896274 11.66066074 50.17355728 C11.60551043 46.33090281 11.5521032 42.48824062 11.50268555 38.64550781 C11.4549254 34.93665809 11.40257864 31.22789881 11.34705925 27.51915741 C11.32668841 26.1046143 11.30796675 24.69004644 11.29092598 23.27545929 C11.26676528 21.29328191 11.23618277 19.31118596 11.20532227 17.32910156 C11.18977798 16.20103088 11.1742337 15.07296021 11.15821838 13.91070557 C11.02175835 11.40028313 10.90870896 9.33841915 10 7 C7.18362436 5.2999844 7.18362436 5.2999844 4 4 C2.66666667 3.33333333 1.33333333 2.66666667 0 2 C0 1.34 0 0.68 0 0 Z " fill="#5170F0" transform="translate(232,284)"/>
<path d="M0 0 C1.32 0.66 2.64 1.32 4 2 C3.01 2.495 3.01 2.495 2 3 C1.34 2.67 0.68 2.34 0 2 C0.16265854 3.01554459 0.32531708 4.03108917 0.49290466 5.07740784 C0.96114117 8.69941089 1.12063585 12.11381027 1.11352539 15.76147461 C1.11341209 17.71270485 1.11341209 17.71270485 1.11329651 19.70335388 C1.10819141 21.10301757 1.10297544 22.50268086 1.09765625 23.90234375 C1.09578866 25.34965465 1.09436637 26.79696619 1.09336853 28.24427795 C1.08957018 32.0335976 1.0797631 35.82287826 1.06866455 39.61218262 C1.05839247 43.48689242 1.05385854 47.3616086 1.04882812 51.23632812 C1.03813816 58.82423643 1.02109434 66.41211273 1 74 C0.34 74 -0.32 74 -1 74 C-1.33 53.54 -1.66 33.08 -2 12 C-2.66 11.67 -3.32 11.34 -4 11 C-2.25 3.375 -2.25 3.375 0 0 Z " fill="#C7D4FE" transform="translate(183,181)"/>
<path d="M0 0 C1.32 0.66 2.64 1.32 4 2 C3.34 2 2.68 2 2 2 C2 25.43 2 48.86 2 73 C0.35 72.34 -1.3 71.68 -3 71 C-1.02 70.505 -1.02 70.505 1 70 C0.67 46.9 0.34 23.8 0 0 Z " fill="#5372ED" transform="translate(243,144)"/>
<path d="M0 0 C1.52980772 3.05961544 0.49472132 5.64319963 0 9 C-0.07876578 10.49256166 -0.13655452 11.98634505 -0.17578125 13.48046875 C-0.19962891 14.25197266 -0.22347656 15.02347656 -0.24804688 15.81835938 C-0.29132677 17.40922344 -0.32240612 19.00046233 -0.34179688 20.59179688 C-0.47665994 24.32719013 -0.57235669 26.39753986 -2.77734375 29.50390625 C-5.11793533 31.07938353 -6.46301829 31.56420122 -9.25 31.75 C-10.4875 31.8325 -11.725 31.915 -13 32 C-5.6 26 -5.6 26 -2 26 C-2 17.75 -2 9.5 -2 1 C-1.34 0.67 -0.68 0.34 0 0 Z " fill="#556FE2" transform="translate(311,229)"/>
<path d="M0 0 C0.33 0 0.66 0 1 0 C1.09881786 5.49921406 1.17144379 10.99791235 1.21972656 16.49780273 C1.23985207 18.36898804 1.26715549 20.24011039 1.30175781 22.11108398 C1.35023581 24.79947432 1.37295872 27.48703388 1.390625 30.17578125 C1.41127014 31.01337479 1.43191528 31.85096832 1.45318604 32.71394348 C1.45542525 38.49930373 1.45542525 38.49930373 -0.88378906 41.07104492 C-3 42 -3 42 -5.25 41.6875 C-5.8275 41.460625 -6.405 41.23375 -7 41 C-2.25 38 -2.25 38 0 38 C0 25.46 0 12.92 0 0 Z " fill="#6180E6" transform="translate(335,178)"/>
<path d="M0 0 C9.12692294 4.80036247 18.13919653 9.71981916 27 15 C24 16 24 16 20.875 14.6875 C18 13 18 13 17 11 C16.01 11 15.02 11 14 11 C14 10.34 14 9.68 14 9 C13.28972656 8.81824219 12.57945312 8.63648438 11.84765625 8.44921875 C10.92855469 8.19785156 10.00945312 7.94648438 9.0625 7.6875 C8.14597656 7.44386719 7.22945312 7.20023438 6.28515625 6.94921875 C5.15400391 6.47935547 5.15400391 6.47935547 4 6 C3.67 5.01 3.34 4.02 3 3 C2.01 2.67 1.02 2.34 0 2 C0 1.34 0 0.68 0 0 Z " fill="#6379E2" transform="translate(152,175)"/>
<path d="M0 0 C6.46568686 0.33443208 9.44922643 1.33545709 14 6 C14 6.66 14 7.32 14 8 C8.76481294 6.56032356 4.36973991 4.18303389 0 1 C0 0.67 0 0.34 0 0 Z " fill="#4D6AE6" transform="translate(146,305)"/>
<path d="M0 0 C2.97 0.99 5.94 1.98 9 3 C9 3.66 9 4.32 9 5 C10.2684375 5.37125 10.2684375 5.37125 11.5625 5.75 C15.38427474 7.13973627 18.51868063 8.91120838 22 11 C22 11.66 22 12.32 22 13 C17.04288402 11.26153247 12.68611031 8.60348281 8.1875 5.9375 C7.39923828 5.47794922 6.61097656 5.01839844 5.79882812 4.54492188 C5.05439453 4.10599609 4.30996094 3.66707031 3.54296875 3.21484375 C2.86258545 2.81386475 2.18220215 2.41288574 1.48120117 1.99975586 C0.99240479 1.66983643 0.5036084 1.33991699 0 1 C0 0.67 0 0.34 0 0 Z " fill="#657AEA" transform="translate(206,194)"/>
<path d="M0 0 C-1.3943874 2.78877479 -3.56195086 4.09713238 -6 6 C-6.66 6.66 -7.32 7.32 -8 8 C-8.99 7.01 -9.98 6.02 -11 5 C-7.17906575 1.05170128 -5.52310605 -0.1453449 0 0 Z " fill="#546EEE" transform="translate(371,159)"/>
<path d="M0 0 C0.66 0.33 1.32 0.66 2 1 C2 1.66 2 2.32 2 3 C0.72125 3.2475 -0.5575 3.495 -1.875 3.75 C-5.26747318 4.51990586 -5.26747318 4.51990586 -7.5 7.125 C-7.665 7.74375 -7.83 8.3625 -8 9 C-9.98 9 -11.96 9 -14 9 C-11.50175511 6.18841591 -8.721524 4.55162169 -5.4375 2.75 C-4.46683594 2.20859375 -3.49617188 1.6671875 -2.49609375 1.109375 C-1.67238281 0.74328125 -0.84867187 0.3771875 0 0 Z " fill="#5E80F1" transform="translate(326,220)"/>
<path d="M0 0 C4.8288023 1.44864069 9.78694365 3.17453739 14 6 C14.33 6.99 14.66 7.98 15 9 C11.32305352 7.62859834 8.04681411 5.96304199 4.6875 3.9375 C3.80449219 3.41027344 2.92148438 2.88304687 2.01171875 2.33984375 C1.34785156 1.89769531 0.68398437 1.45554687 0 1 C0 0.67 0 0.34 0 0 Z M14 1 C14.66 1.33 15.32 1.66 16 2 C15.67 2.99 15.34 3.98 15 5 C14.34 5 13.68 5 13 5 C13.33 3.68 13.66 2.36 14 1 Z " fill="#4F67E0" transform="translate(198,335)"/>
<path d="M0 0 C1.32 0.66 2.64 1.32 4 2 C3.01 2.495 3.01 2.495 2 3 C1.34 2.67 0.68 2.34 0 2 C0.185625 3.11375 0.37125 4.2275 0.5625 5.375 C1 9 1 9 0 11 C-1.32 11 -2.64 11 -4 11 C-2.25 3.375 -2.25 3.375 0 0 Z " fill="#DBE2FB" transform="translate(183,181)"/>
<path d="M0 0 C0 2.97 0 5.94 0 9 C-0.33 9 -0.66 9 -1 9 C-1 6.36 -1 3.72 -1 1 C-2.65 1.33 -4.3 1.66 -6 2 C-6 2.66 -6 3.32 -6 4 C-7.98 4.33 -9.96 4.66 -12 5 C-8.26873691 0.87597238 -5.60315895 -1.40078974 0 0 Z " fill="#5568D4" transform="translate(309,111)"/>
<path d="M0 0 C0.78375 0.04125 1.5675 0.0825 2.375 0.125 C-2.11601628 4.16691465 -7.21484989 6.56174441 -12.625 9.125 C-11.49716063 5.74148189 -11.17411128 5.59616525 -8.1875 4.0625 C-0.41005263 0.01952632 -0.41005263 0.01952632 0 0 Z " fill="#C4D0EC" transform="translate(382.625,331.875)"/>
<path d="M0 0 C1.32 0.33 2.64 0.66 4 1 C2.21190303 2.17213045 0.41940875 3.33755526 -1.375 4.5 C-2.37273437 5.1496875 -3.37046875 5.799375 -4.3984375 6.46875 C-7 8 -7 8 -9 8 C-9 7.01 -9 6.02 -9 5 C-7.68 5 -6.36 5 -5 5 C-5.33 4.01 -5.66 3.02 -6 2 C-4.02 2 -2.04 2 0 2 C0 1.34 0 0.68 0 0 Z " fill="#5E75EE" transform="translate(255,209)"/>
<path d="M0 0 C-4.95 2.64 -9.9 5.28 -15 8 C-12.96438455 3.9287691 -12.37723443 3.25060564 -8.625 1.1875 C-7.85414063 0.74792969 -7.08328125 0.30835938 -6.2890625 -0.14453125 C-4 -1 -4 -1 0 0 Z " fill="#5772EE" transform="translate(293,313)"/>
<path d="M0 0 C0.721875 0.45375 1.44375 0.9075 2.1875 1.375 C4.74894081 2.85494358 7.23277989 3.97217539 10 5 C10 5.99 10 6.98 10 8 C5.69235185 6.43358249 1.93828536 4.31663844 -2 2 C-1.34 1.34 -0.68 0.68 0 0 Z " fill="#DBE8FD" transform="translate(212,269)"/>
<path d="M0 0 C4.50802601 1.25805377 7.4912812 2.90407165 11 6 C9.02 6.33 7.04 6.66 5 7 C5 6.34 5 5.68 5 5 C4.01 4.67 3.02 4.34 2 4 C0.8125 1.9375 0.8125 1.9375 0 0 Z " fill="#DCE9FE" transform="translate(214,200)"/>
<path d="M0 0 C6.47556391 0.61090226 6.47556391 0.61090226 8.9375 2.4375 C10 4 10 4 10 6 C5.56909529 4.79157144 3.01887244 3.48331435 0 0 Z " fill="#677EF2" transform="translate(192,186)"/>
<path d="M0 0 C3.69876091 1.37287342 6.9514476 3.06355453 10.3125 5.125 C11.19550781 5.66382812 12.07851562 6.20265625 12.98828125 6.7578125 C13.65214844 7.16773437 14.31601563 7.57765625 15 8 C14.01 8.495 14.01 8.495 13 9 C10.71741367 7.92325298 8.5643566 6.80453884 6.375 5.5625 C5.76398438 5.22412109 5.15296875 4.88574219 4.5234375 4.53710938 C3.011647 3.69853808 1.50529601 2.85017423 0 2 C0 1.34 0 0.68 0 0 Z " fill="#6179DB" transform="translate(188,112)"/>
<path d="M0 0 C4.8274799 1.41292095 8.7162359 3.42974154 13 6 C12.67 6.66 12.34 7.32 12 8 C8 6 4 4 0 2 C0 1.34 0 0.68 0 0 Z " fill="#6178E6" transform="translate(232,284)"/>
<path d="M0 0 C0.66 0.33 1.32 0.66 2 1 C1.5 2.9375 1.5 2.9375 0 5 C-2.69658452 5.68790422 -5.2017019 5.81946464 -8 6 C-5.38485683 3.87961365 -2.80362384 1.86908256 0 0 Z " fill="#6781F0" transform="translate(306,255)"/>
<path d="M0 0 C2.00720923 0.28674418 4.0085944 0.61866701 6 1 C6 1.99 6 2.98 6 4 C6.66 4 7.32 4 8 4 C8 4.66 8 5.32 8 6 C4.22454612 4.90931332 1.52956528 4.0916909 -1 1 C-0.67 0.67 -0.34 0.34 0 0 Z " fill="#4E67E0" transform="translate(190,329)"/>
<path d="M0 0 C3.63 1.98 7.26 3.96 11 6 C7.37673261 7.2077558 6.35853631 6.54311128 3 5 C3 4.34 3 3.68 3 3 C2.01 2.67 1.02 2.34 0 2 C0 1.34 0 0.68 0 0 Z " fill="#5C6ED6" transform="translate(152,175)"/>
<path d="M0 0 C1.65 0 3.3 0 5 0 C5 0.66 5 1.32 5 2 C-0.2734375 5.22265625 -0.2734375 5.22265625 -2 6 C-2.66 5.67 -3.32 5.34 -4 5 C-3.01 4.67 -2.02 4.34 -1 4 C-0.26676204 1.98491642 -0.26676204 1.98491642 0 0 Z " fill="#C3D1F1" transform="translate(298,378)"/>
<path d="M0 0 C2.64 0.33 5.28 0.66 8 1 C8 1.66 8 2.32 8 3 C9.32 3.33 10.64 3.66 12 4 C7.12335991 4.34833144 4.22949995 3.41685712 0 1 C0 0.67 0 0.34 0 0 Z " fill="#5065D7" transform="translate(237,358)"/>
<path d="M0 0 C3.3 1.65 6.6 3.3 10 5 C9.34 5.66 8.68 6.32 8 7 C7.34 6.67 6.68 6.34 6 6 C6 5.34 6 4.68 6 4 C4.35 3.67 2.7 3.34 1 3 C0.67 2.01 0.34 1.02 0 0 Z " fill="#5F75EA" transform="translate(186,257)"/>
<path d="M0 0 C0.66 0.33 1.32 0.66 2 1 C0.02 1.99 0.02 1.99 -2 3 C-2 3.99 -2 4.98 -2 6 C-2.99 6.33 -3.98 6.66 -5 7 C-5 6.34 -5 5.68 -5 5 C-5.66 4.67 -6.32 4.34 -7 4 C-1.7265625 0.77734375 -1.7265625 0.77734375 0 0 Z " fill="#ADC8FE" transform="translate(354,215)"/>
<path d="M0 0 C-1 2 -2 4 -3 6 C-4.65 5.67 -6.3 5.34 -8 5 C-3.16129032 0 -3.16129032 0 0 0 Z " fill="#C7D7FC" transform="translate(264,207)"/>
<path d="M0 0 C2.64 0 5.28 0 8 0 C8.33 1.65 8.66 3.3 9 5 C5.54074837 3.7508258 2.85306797 2.32472205 0 0 Z " fill="#5068DB" transform="translate(161,314)"/>
<path d="M0 0 C-4.95 2.475 -4.95 2.475 -10 5 C-8 1 -8 1 -5.5625 -0.3125 C-3 -1 -3 -1 0 0 Z " fill="#DAE9FE" transform="translate(257,285)"/>
<path d="M0 0 C0 0.66 0 1.32 0 2 C-0.99 2 -1.98 2 -3 2 C-3 2.99 -3 3.98 -3 5 C-4.98 5 -6.96 5 -9 5 C-2.87096774 0 -2.87096774 0 0 0 Z " fill="#647BEE" transform="translate(264,281)"/>
<path d="M0 0 C3.96 1.98 3.96 1.98 8 4 C6.02 4.99 6.02 4.99 4 6 C3.67 5.01 3.34 4.02 3 3 C2.01 2.67 1.02 2.34 0 2 C0 1.34 0 0.68 0 0 Z " fill="#5771EF" transform="translate(224,279)"/>
<path d="M0 0 C0.66 0.33 1.32 0.66 2 1 C2 1.99 2 2.98 2 4 C-0.64 4.33 -3.28 4.66 -6 5 C-4.06745228 2.9754262 -2.36841312 1.57894208 0 0 Z " fill="#B1D0FD" transform="translate(297,163)"/>
</svg>
